<?xml version="1.0" encoding="UTF-8"?>
<svg id="Layer_1" data-name="Layer 1" xmlns="http://www.w3.org/2000/svg" viewBox="0 0 120.98 55.96">
  <g>
    <path d="m87.85,4.35C92.51.8,98.62-.12,104.34.01c6.04.14,12.47,1.81,16.64,6.45v36.55c-3.38,3.83-8.41,5.68-13.38,6.25-6.1.4-12.64.29-18.04-2.95-4.7-2.72-7.66-7.75-8.67-13,0,4.96.04,9.91,0,14.87-4.39-.03-8.79,0-13.18-.01-5.7-9.83-11.35-19.7-17.07-29.52.09,9.83,0,19.66.05,29.49-7.76.07-15.53.02-23.3.03-.9-3.65-.48-7.44-.94-11.13-.26-1.86-1.15-4.2-3.33-4.38-3.98-.19-7.97,0-11.96-.09,0,5.2.02,10.41-.01,15.61-3.71-.01-7.43,0-11.14,0V1.42c9.15-.02,18.29,0,27.43-.01,1.96-.01,3.96.12,5.8.86,2.95,1.11,5.12,3.82,5.8,6.87-.02-2.58.02-5.16-.02-7.74,4.61.02,9.21.01,13.82,0,5.52,9.78,11.01,19.58,16.56,29.34-.21-9.78-.02-19.55-.1-29.33,3.86-.02,7.73,0,11.59-.02.02,4.94.03,9.87-.02,14.81.93-4.58,3.19-9.02,6.98-11.86Zm13.3,6.4c-4.19.6-7.06,4.36-7.9,8.3-1.03,5.01-1.01,10.57,1.46,15.16,2.89,5.58,11.47,6.26,15.72,1.93,2.83-3.09,3.41-7.46,3.45-11.48-.06-3.65-.54-7.56-2.86-10.52-2.22-2.99-6.32-4.09-9.87-3.39Zm-90,1.16c.03,3.39.02,6.79.01,10.18,3.98-.09,7.97.06,11.96-.07,4.94-.49,5.18-9.23.33-10.02-4.09-.18-8.2,0-12.3-.09Zm22.82,13.26c2.21.96,3.51,3.19,3.96,5.47.8,4.27.42,8.66,1.13,12.94-.03-8.12-.03-16.25,0-24.37-.64,2.65-2.43,5.08-5.09,5.96Z" style="fill: #fff;"/>
    <path d="m41.24,51.8c6.23-.02,12.46-.03,18.69,0,.05,1.33-.7,3.09.75,3.91-6.47.45-12.96.06-19.44.23.04-1.38.04-2.76,0-4.14Z" style="fill: #fff;"/>
    <path d="m64.83,51.82c6.27-.08,12.55,0,18.84-.04-.03,1.39-.04,2.77-.05,4.16-6.32-.18-12.66.29-18.96-.26,1.02-1.1.55-2.6.18-3.86Z" style="fill: #fff;"/>
  </g>
  <path d="m0,51.79c13.75,0,27.49-.02,41.24.02.05,1.38.04,2.76,0,4.14-13.75.02-27.5,0-41.25,0v-4.16Z" style="fill: #f26922;"/>
  <g>
    <path d="m59.93,51.81c1.63.02,3.27.04,4.9.01.37,1.26.83,2.75-.18,3.86-1.3.39-2.65.28-3.97.04-1.45-.82-.7-2.58-.75-3.91Z" style="fill: #5aba48;"/>
    <path d="m83.67,51.77c12.44-.04,24.87,0,37.31-.02v4.2c-12.45-.02-24.91.03-37.36-.02.01-1.39.03-2.77.05-4.16Z" style="fill: #5aba48;"/>
  </g>
</svg>